<svg width="16" height="20" viewBox="0 0 16 20" fill="none" xmlns="http://www.w3.org/2000/svg">
<path d="M1.14286 17.7778C1.14286 19 2.17143 20 3.42857 20H12.5714C13.8286 20 14.8571 19 14.8571 17.7778V4.44444H1.14286V17.7778ZM4.76571 10.6556C4.55203 10.4478 4.43198 10.166 4.43198 9.87222C4.43198 9.57842 4.55203 9.29664 4.76571 9.08889C4.9794 8.88114 5.26923 8.76442 5.57143 8.76442C5.87363 8.76442 6.16345 8.88114 6.37714 9.08889L8 10.6556L9.61143 9.08889C9.82512 8.88114 10.1149 8.76442 10.4171 8.76442C10.7193 8.76442 11.0092 8.88114 11.2229 9.08889C11.4365 9.29664 11.5566 9.57842 11.5566 9.87222C11.5566 10.166 11.4365 10.4478 11.2229 10.6556L9.61143 12.2222L11.2229 13.7889C11.3287 13.8918 11.4126 14.0139 11.4699 14.1483C11.5271 14.2827 11.5566 14.4267 11.5566 14.5722C11.5566 14.7177 11.5271 14.8618 11.4699 14.9962C11.4126 15.1306 11.3287 15.2527 11.2229 15.3556C11.117 15.4584 10.9914 15.54 10.8532 15.5957C10.7149 15.6514 10.5668 15.68 10.4171 15.68C10.2675 15.68 10.1193 15.6514 9.98109 15.5957C9.84285 15.54 9.71724 15.4584 9.61143 15.3556L8 13.7889L6.38857 15.3556C6.28276 15.4584 6.15715 15.54 6.01891 15.5957C5.88066 15.6514 5.73249 15.68 5.58286 15.68C5.43322 15.68 5.28505 15.6514 5.14681 15.5957C5.00856 15.54 4.88295 15.4584 4.77714 15.3556C4.67134 15.2527 4.5874 15.1306 4.53014 14.9962C4.47288 14.8618 4.44341 14.7177 4.44341 14.5722C4.44341 14.4267 4.47288 14.2827 4.53014 14.1483C4.5874 14.0139 4.67134 13.8918 4.77714 13.7889L6.38857 12.2222L4.76571 10.6556ZM14.8571 1.11111H12L11.1886 0.322222C10.9829 0.122222 10.6857 0 10.3886 0H5.61143C5.31429 0 5.01714 0.122222 4.81143 0.322222L4 1.11111H1.14286C0.514286 1.11111 0 1.61111 0 2.22222C0 2.83333 0.514286 3.33333 1.14286 3.33333H14.8571C15.4857 3.33333 16 2.83333 16 2.22222C16 1.61111 15.4857 1.11111 14.8571 1.11111Z" fill="#2ABA00"/>
</svg>
